HIERARCHY
ROOT Hips
{
	OFFSET 0.00000 0.00000 0.00000
	CHANNELS 6 Xposition Yposition Zposition Zrotation Yrotation Xrotation 
	JOINT LHipJoint
	{
		OFFSET 0 0 0
		CHANNELS 3 Zrotation Yrotation Xrotation
		JOINT LeftUpLeg
		{
			OFFSET 1.76014 -1.80163 0.38499
			CHANNELS 3 Zrotation Yrotation Xrotation
			JOINT LeftLeg
			{
				OFFSET 2.46817 -6.78126 0.00000
				CHANNELS 3 Zrotation Yrotation Xrotation
				JOINT LeftFoot
				{
					OFFSET 2.79348 -7.67503 0.00000
					CHANNELS 3 Zrotation Yrotation Xrotation
					JOINT LeftToeBase
					{
						OFFSET 0.09421 -0.25885 1.91403
						CHANNELS 3 Zrotation Yrotation Xrotation
						End Site
						{
							OFFSET 0.00000 -0.00000 0.97975
						}
					}
				}
			}
		}
	}
	JOINT RHipJoint
	{
		OFFSET 0 0 0
		CHANNELS 3 Zrotation Yrotation Xrotation
		JOINT RightUpLeg
		{
			OFFSET -1.77926 -1.80163 0.38499
			CHANNELS 3 Zrotation Yrotation Xrotation
			JOINT RightLeg
			{
				OFFSET -2.51996 -6.92353 0.00000
				CHANNELS 3 Zrotation Yrotation Xrotation
				JOINT RightFoot
				{
					OFFSET -2.76109 -7.58603 0.00000
					CHANNELS 3 Zrotation Yrotation Xrotation
					JOINT RightToeBase
					{
						OFFSET -0.08067 -0.22163 1.86812
						CHANNELS 3 Zrotation Yrotation Xrotation
						End Site
						{
							OFFSET -0.00000 -0.00000 0.95558
						}
					}
				}
			}
		}
	}
	JOINT LowerBack
	{
		OFFSET 0 0 0
		CHANNELS 3 Zrotation Yrotation Xrotation
		JOINT Spine
		{
			OFFSET 0.05537 1.92033 -0.03713
			CHANNELS 3 Zrotation Yrotation Xrotation
			JOINT Spine1
			{
				OFFSET 0.04452 1.90073 0.10860
				CHANNELS 3 Zrotation Yrotation Xrotation
				JOINT Neck
				{
					OFFSET 0 0 0
					CHANNELS 3 Zrotation Yrotation Xrotation
					JOINT Neck1
					{
						OFFSET 0.00903 1.74649 0.02074
						CHANNELS 3 Zrotation Yrotation Xrotation
						JOINT Head
						{
							OFFSET -0.08608 1.67844 -0.12081
							CHANNELS 3 Zrotation Yrotation Xrotation
							End Site
							{
								OFFSET -0.03521 1.83380 -0.05059
							}
						}
					}
				}
				JOINT LeftShoulder
				{
					OFFSET 0 0 0
					CHANNELS 3 Zrotation Yrotation Xrotation
					JOINT LeftArm
					{
						OFFSET 3.28197 0.84325 -0.19106
						CHANNELS 3 Zrotation Yrotation Xrotation
						JOINT LeftForeArm
						{
							OFFSET 5.24318 -0.00000 -0.00000
							CHANNELS 3 Zrotation Yrotation Xrotation
							JOINT LeftHand
							{
								OFFSET 2.98999 -0.00000 0.00000
								CHANNELS 3 Zrotation Yrotation Xrotation
								JOINT LeftFingerBase
								{
									OFFSET 0 0 0
									CHANNELS 3 Zrotation Yrotation Xrotation
									JOINT LeftHandIndex1
									{
										OFFSET 0.72674 -0.00000 0.00000
										CHANNELS 3 Zrotation Yrotation Xrotation
										End Site
										{
											OFFSET 0.58592 -0.00000 0.00000
										}
									}
								}
								JOINT LThumb
								{
									OFFSET 0 0 0
									CHANNELS 3 Zrotation Yrotation Xrotation
									End Site
									{
										OFFSET 0.59487 -0.00000 0.59487
									}
								}
							}
						}
					}
				}
				JOINT RightShoulder
				{
					OFFSET 0 0 0
					CHANNELS 3 Zrotation Yrotation Xrotation
					JOINT RightArm
					{
						OFFSET -3.30963 0.78377 0.14264
						CHANNELS 3 Zrotation Yrotation Xrotation
						JOINT RightForeArm
						{
							OFFSET -5.37045 -0.00000 0.00000
							CHANNELS 3 Zrotation Yrotation Xrotation
							JOINT RightHand
							{
								OFFSET -2.92792 -0.00000 0.00000
								CHANNELS 3 Zrotation Yrotation Xrotation
								JOINT RightFingerBase
								{
									OFFSET 0 0 0
									CHANNELS 3 Zrotation Yrotation Xrotation
									JOINT RightHandIndex1
									{
										OFFSET -0.78450 -0.00000 0.00000
										CHANNELS 3 Zrotation Yrotation Xrotation
										End Site
										{
											OFFSET -0.63248 -0.00000 0.00000
										}
									}
								}
								JOINT RThumb
								{
									OFFSET 0 0 0
									CHANNELS 3 Zrotation Yrotation Xrotation
									End Site
									{
										OFFSET -0.64214 -0.00000 0.64214
									}
								}
							}
						}
					}
				}
			}
		}
	}
}
MOTION
Frames: 10
Frame Time: .0083333
0.1288 16.3099 0.2050 1.0210 5.2885 -4.4277 0.0000 0.0000 0.0000 -15.0092 2.5510 -25.9057 9.3326 17.0171 57.2335 1.4850 -11.3124 -22.0472 1.5699 -7.9061 -22.4292 0.0000 0.0000 0.0000 14.1057 -11.6814 -29.5478 -9.9729 -17.3946 59.3978 -1.3962 9.3165 -21.1982 -0.3586 3.8471 -10.6469 5.0074 3.5043 18.2943 3.8729 5.4616 9.7266 0.3270 2.8390 0.3212 1.3690 8.4767 -10.0362 -11.0862 11.8651 2.2829 -2.8468 5.5416 3.0776 0.0000 0.0000 0.0000 -40.7669 -1.5116 26.9324 59.9563 -56.2983 -34.3048 -0.0000 0.0000 -19.1543 1.6583 13.8382 0.3967 -7.1250 0.0000 -0.0000 -23.0353 42.5771 1.4621 0.0000 0.0000 0.0000 46.6607 16.6179 46.2982 -81.8457 59.7473 -52.9442 0.0000 -0.0000 -25.9959 6.9315 6.2131 0.7538 7.1250 -0.0000 -0.0000 24.2705 -23.6569 13.7240
0.1214 16.3092 0.2100 0.9358 5.3097 -4.5736 0.0000 0.0000 0.0000 -14.8727 2.5551 -25.7355 9.3369 17.0197 57.2482 1.4842 -11.3365 -22.0445 1.5734 -7.9145 -22.4547 0.0000 0.0000 0.0000 14.2029 -11.7227 -29.3512 -9.9636 -17.3893 59.3665 -1.3914 9.4462 -21.1719 -0.3142 3.6033 -9.9633 4.9950 3.4884 18.3723 3.8162 5.4437 9.7265 0.2721 2.8304 0.2850 1.2428 8.4679 -10.1670 -10.9390 11.8730 2.4254 -2.7756 5.5388 3.1249 -0.0000 -0.0000 0.0000 -40.6191 -1.8711 26.5344 59.7127 -56.2329 -34.1021 -0.0000 0.0000 -19.1023 1.8953 13.5244 0.4434 -7.1250 0.0000 -0.0000 -22.7209 42.3119 1.5977 -0.0000 -0.0000 0.0000 47.0134 16.2578 46.2396 -80.9186 59.6861 -52.1436 0.0000 -0.0000 -25.4963 6.8857 6.1748 0.7442 7.1250 -0.0000 -0.0000 24.2470 -23.6933 13.6852
0.1122 16.3089 0.2148 0.8895 5.3236 -4.6878 0.0000 0.0000 0.0000 -14.7820 2.5271 -25.6000 9.3396 17.0214 57.2573 1.4890 -11.2716 -22.0701 1.6089 -7.9990 -22.7110 0.0000 0.0000 0.0000 14.2757 -11.7168 -29.1830 -9.9531 -17.3834 59.3314 -1.4052 9.3373 -21.2665 -0.3379 3.7355 -10.3338 4.8959 3.4828 18.4214 3.7635 5.4237 9.7277 0.2712 2.8178 0.2556 1.1772 8.4777 -10.2566 -10.8683 11.8943 2.4710 -2.7387 5.5461 3.1457 -0.0000 -0.0000 0.0000 -40.4818 -2.3123 26.0870 59.4010 -56.1482 -33.8431 -0.0000 0.0000 -18.9394 1.8558 13.6973 0.4396 -7.1250 0.0000 -0.0000 -22.8166 42.4674 1.5122 -0.0000 -0.0000 0.0000 47.3615 15.8983 46.1757 -79.9653 59.6161 -51.3209 0.0000 -0.0000 -24.9386 6.8304 6.3266 0.7562 7.1250 -0.0000 -0.0000 24.1811 -23.5555 13.7263
0.1036 16.3065 0.2209 0.8042 5.2715 -4.7626 0.0000 0.0000 0.0000 -14.6393 2.5803 -25.5398 9.3444 17.0243 57.2738 1.4894 -11.3101 -22.0776 1.6120 -8.0063 -22.7334 0.0000 0.0000 0.0000 14.4023 -11.6393 -29.0401 -9.9402 -17.3761 59.2883 -1.4131 9.2662 -21.3207 -0.3375 3.7331 -10.3269 4.8295 3.4971 18.3827 3.7198 5.4274 9.7482 0.2651 2.8195 0.2952 1.1496 8.4806 -10.4033 -10.8460 11.9094 2.5464 -2.7192 5.5458 3.1900 0.0000 -0.0000 0.0000 -40.2787 -2.7525 25.7123 59.2535 -56.1077 -33.7207 -0.0000 0.0000 -18.9110 1.8588 14.1453 0.4544 -7.1250 0.0000 -0.0000 -22.9780 42.8802 1.2751 0.0000 -0.0000 0.0000 47.6259 15.5695 46.1033 -79.1612 59.5514 -50.6275 0.0000 -0.0000 -24.4867 6.6498 6.4580 0.7513 7.1250 -0.0000 -0.0000 24.0348 -23.4395 13.6983
0.0949 16.3093 0.2285 0.7238 5.2594 -4.8308 0.0000 0.0000 0.0000 -14.5063 2.5706 -25.4253 9.3412 17.0223 57.2627 1.4828 -11.4286 -22.0470 1.5767 -7.9224 -22.4786 0.0000 0.0000 0.0000 14.5243 -11.5914 -28.8932 -9.9197 -17.3645 59.2198 -1.4190 9.2008 -21.3605 -0.3280 3.6811 -10.1812 4.7676 3.5021 18.3096 3.6613 5.4176 9.7677 0.2457 2.8154 0.3528 1.0931 8.4503 -10.5642 -10.7439 11.8810 2.6618 -2.6739 5.5243 3.2389 0.0000 -0.0000 0.0000 -40.0415 -3.1490 25.3355 59.0932 -56.0634 -33.5877 -0.0000 0.0000 -18.7175 1.6391 14.4317 0.4086 -7.1250 0.0000 -0.0000 -23.2717 43.1205 1.1464 0.0000 -0.0000 0.0000 47.8874 15.2591 46.0297 -78.4686 59.4915 -50.0305 0.0000 -0.0000 -24.1629 6.5418 6.3580 0.7276 7.1250 -0.0000 -0.0000 23.9808 -23.5342 13.6029
0.0858 16.3144 0.2362 0.6470 5.2514 -4.9076 0.0000 0.0000 0.0000 -14.3844 2.5218 -25.2705 9.3347 17.0183 57.2405 1.4733 -11.5724 -21.9998 1.4808 -7.6885 -21.7720 0.0000 0.0000 0.0000 14.6442 -11.5464 -28.7144 -9.8954 -17.3506 59.1383 -1.4175 9.2086 -21.3494 -0.2905 3.4658 -9.5783 4.7102 3.5085 18.2564 3.5967 5.4128 9.7673 0.2140 2.8133 0.3799 1.1256 8.4098 -10.6024 -10.7441 11.8266 2.7080 -2.6805 5.4939 3.2578 0.0000 0.0000 0.0000 -39.7861 -3.5122 25.0328 58.9202 -56.0153 -33.4442 -0.0000 0.0000 -18.4499 1.4996 14.5852 0.3777 -7.1250 0.0000 -0.0000 -23.4486 43.2465 1.0785 0.0000 0.0000 0.0000 48.2455 14.9019 45.9148 -77.7485 59.4252 -49.4103 0.0000 -0.0000 -23.7718 6.5682 6.2555 0.7188 7.1250 -0.0000 -0.0000 24.0178 -23.6278 13.5702
0.0772 16.3173 0.2408 0.5253 5.2255 -4.9783 0.0000 0.0000 0.0000 -14.2136 2.4882 -25.1650 9.3336 17.0176 57.2367 1.4771 -11.5321 -22.0212 1.4532 -7.6198 -21.5650 0.0000 0.0000 0.0000 14.8274 -11.4873 -28.5664 -9.8694 -17.3357 59.0509 -1.4259 9.1794 -21.4102 -0.2809 3.4086 -9.4185 4.6826 3.5088 18.2373 3.5713 5.4078 9.7585 0.2042 2.8103 0.3798 1.1346 8.3944 -10.5644 -10.7942 11.8009 2.6400 -2.7015 5.4833 3.2335 0.0000 -0.0000 0.0000 -39.5675 -3.8594 24.7631 58.7589 -55.9701 -33.3105 -0.0000 0.0000 -18.2797 1.6036 14.4728 0.4009 -7.1250 0.0000 -0.0000 -23.3174 43.1544 1.1282 0.0000 -0.0000 0.0000 48.5315 14.5565 45.8426 -77.0343 59.3552 -48.7957 0.0000 -0.0000 -23.4003 6.4877 6.0556 0.6873 7.1250 -0.0000 -0.0000 24.0011 -23.8137 13.4440
0.0695 16.3157 0.2437 0.4340 5.1732 -5.0112 0.0000 0.0000 0.0000 -14.0810 2.4636 -25.1134 9.3353 17.0187 57.2425 1.4905 -11.4000 -22.0971 1.5015 -7.7398 -21.9264 0.0000 0.0000 0.0000 14.9793 -11.3976 -28.4975 -9.8534 -17.3266 58.9971 -1.4358 9.0422 -21.4752 -0.3066 3.5597 -9.8412 4.6463 3.5260 18.1973 3.5222 5.4219 9.7395 0.1722 2.8170 0.3812 1.1068 8.3462 -10.5799 -10.7622 11.7330 2.6023 -2.6934 5.4514 3.2169 0.0000 0.0000 0.0000 -39.2909 -4.2201 24.5277 58.5226 -55.9032 -33.1147 -0.0000 0.0000 -18.1809 1.6631 14.1941 0.4079 -7.1250 0.0000 -0.0000 -23.1624 42.9047 1.2717 0.0000 0.0000 0.0000 48.8118 14.2264 45.7225 -76.2435 59.2727 -48.1156 0.0000 -0.0000 -23.1228 6.5334 6.0359 0.6900 7.1250 -0.0000 -0.0000 24.0357 -23.8305 13.4568
0.0624 16.3160 0.2485 0.2955 5.1198 -5.0776 0.0000 0.0000 0.0000 -13.8890 2.4530 -25.0178 9.3370 17.0197 57.2483 1.4874 -11.4377 -22.0804 1.4714 -7.6653 -21.7021 0.0000 0.0000 0.0000 15.1752 -11.3064 -28.3589 -9.8320 -17.3143 58.9254 -1.4468 8.8703 -21.5479 -0.3329 3.7080 -10.2565 4.6658 3.5309 18.1690 3.4745 5.4287 9.7336 0.1121 2.8225 0.3963 1.1300 8.2927 -10.7223 -10.7186 11.6680 2.7252 -2.6807 5.4106 3.2717 -0.0000 -0.0000 0.0000 -38.9884 -4.6530 24.3156 58.1429 -55.7944 -32.8005 -0.0000 0.0000 -18.0721 1.8181 14.2674 0.4482 -7.1250 0.0000 -0.0000 -23.0578 42.9883 1.2146 -0.0000 -0.0000 0.0000 49.1166 13.9459 45.6439 -75.2463 59.1613 -47.2589 0.0000 -0.0000 -22.7642 6.4973 6.3674 0.7236 7.1250 -0.0000 -0.0000 23.9490 -23.5267 13.5859
0.0540 16.3190 0.2535 0.3660 5.1040 -5.1334 0.0000 0.0000 0.0000 -13.9477 2.4309 -24.8927 9.3310 17.0161 57.2279 1.5018 -11.2278 -22.1543 1.5521 -7.8632 -22.2993 0.0000 0.0000 0.0000 15.1288 -11.2456 -28.2216 -9.8156 -17.3048 58.8702 -1.4486 8.7711 -21.5571 -0.3216 3.6451 -10.0803 4.4539 3.5478 18.1481 3.3876 5.4158 9.7349 0.1412 2.8107 0.3950 1.1352 8.2326 -10.8233 -10.6909 11.5937 2.8149 -2.6732 5.3674 3.3093 -0.0000 -0.0000 0.0000 -38.7305 -5.0720 24.0850 57.7569 -55.6820 -32.4814 -0.0000 0.0000 -17.8952 1.9464 14.4533 0.4860 -7.1250 0.0000 -0.0000 -23.0180 43.1730 1.1007 -0.0000 -0.0000 0.0000 49.3904 13.6474 45.6211 -74.1630 59.0308 -46.3294 0.0000 -0.0000 -22.3375 6.0808 6.9949 0.7433 7.1250 -0.0000 -0.0000 23.5540 -22.9592 13.6602
